<?xml version="1.0" standalone="no"?>
<!DOCTYPE svg PUBLIC "-//W3C//DTD SVG 20010904//EN"
 "http://www.w3.org/TR/2001/REC-SVG-20010904/DTD/svg10.dtd">
<svg version="1.0" xmlns="http://www.w3.org/2000/svg"
 width="260.000000pt" height="260.000000pt" viewBox="0 0 260.000000 260.000000"
 preserveAspectRatio="xMidYMid meet">
<metadata>
Created by potrace 1.11, written by Peter Selinger 2001-2013
</metadata>
<g transform="translate(0.000000,260.000000) scale(0.100000,-0.100000)"
fill="#000000" stroke="none">
<path d="M1158 2545 c-2 -2 -23 -6 -48 -10 -309 -43 -613 -231 -812 -499 -51
-69 -154 -258 -162 -298 -2 -7 -8 -25 -14 -39 -6 -14 -22 -75 -35 -135 -22
-96 -25 -129 -22 -274 1 -91 5 -178 9 -195 4 -16 11 -48 16 -70 30 -135 104
-303 187 -426 43 -66 195 -229 253 -275 55 -42 148 -101 215 -136 81 -42 257
-102 330 -113 28 -4 64 -10 80 -13 37 -8 292 -7 320 0 22 6 118 21 123 19 1
-1 16 6 33 15 17 8 33 13 36 10 3 -3 18 1 34 9 15 8 37 15 49 15 11 0 20 5 20
10 0 6 6 10 14 10 8 0 36 11 63 24 26 14 51 25 56 25 4 0 13 5 20 11 6 5 44
30 82 56 39 25 78 55 88 66 9 11 17 16 17 12 0 -18 219 220 220 238 0 4 7 16
15 25 8 10 15 21 15 26 0 4 9 16 20 27 11 11 20 27 20 35 0 8 5 15 12 15 6 0
8 3 5 7 -4 3 0 14 8 23 8 9 16 26 18 39 2 12 9 26 17 31 7 4 9 13 6 19 -4 6
-2 11 4 11 7 0 10 6 7 14 -3 7 0 22 8 32 7 11 13 22 14 27 0 4 1 8 2 10 0 1 2
9 4 17 2 8 7 26 10 40 4 14 8 34 10 45 2 11 4 21 5 23 2 1 4 7 5 12 1 6 3 11
5 13 13 15 21 377 8 377 -5 0 -7 4 -3 9 3 5 1 29 -4 53 -6 24 -12 54 -15 68
-2 14 -13 50 -22 80 -10 30 -18 57 -19 60 -13 41 -80 182 -108 227 -13 21 -26
43 -27 48 -2 6 -8 15 -14 21 -6 6 -22 26 -36 44 -47 63 -135 152 -205 209
-234 190 -505 284 -807 280 -70 0 -128 -2 -130 -4z"/>
</g>
</svg>
